<svg display="none" xmlns="http://www.w3.org/2000/svg">

  <symbol id="contact" viewBox="0 0 15 17">
    <path d="M7.49904 8.44429C3.5047 8.44429 0.255078 11.6939 0.255078 15.6883C0.255078 15.9017 0.428306 16.075 0.641782 16.075C0.855259 16.075 1.02849 15.9017 1.02849 15.6883C1.02849 12.1203 3.93107 9.21767 7.49907 9.21767C11.0671 9.21767 13.9697 12.1203 13.9697 15.6883C13.9697 15.9017 14.1429 16.075 14.3564 16.075C14.5698 16.075 14.7431 15.9017 14.7431 15.6883C14.743 11.6933 11.4934 8.44429 7.49904 8.44429Z" fill="#515855" stroke="#515855" stroke-width="0.15"/>
    <path d="M7.49894 0.925C5.56741 0.925 3.99531 2.49646 3.99531 4.42863C3.99531 6.3608 5.56743 7.93226 7.49894 7.93226C9.43045 7.93226 11.0026 6.3608 11.0026 4.42863C11.0026 2.49646 9.43048 0.925 7.49894 0.925ZM7.49894 7.15888C5.99374 7.15888 4.76869 5.93384 4.76869 4.42863C4.76869 2.92342 5.99374 1.69838 7.49894 1.69838C9.00415 1.69838 10.2292 2.92342 10.2292 4.42863C10.2292 5.93384 9.00415 7.15888 7.49894 7.15888Z" fill="#515855" stroke="#515855" stroke-width="0.15"/>
  </symbol>

  <symbol id="search" viewBox="0 0 17 17">
    <path d="M11.472 11.0001L16.4998 16M12.9998 7.00015C12.9998 10.3138 10.3136 13.0001 6.99991 13.0001C3.68625 13.0001 1 10.3138 1 7.00015C1 3.68649 3.68625 1.00024 6.99991 1.00024C10.3136 1.00024 12.9998 3.68649 12.9998 7.00015Z" stroke="#515855"/>
  </symbol>

  <symbol id="cart" viewBox="0 0 18 17" fill="none">
    <path d="M2.49998 6.00017H15.4998L16.4998 16H1.5L2.49998 6.00017Z" stroke="#515855"/>
  </symbol>

  <symbol id="favorite" viewBox="0 0 24 22">
    <path d="M2.62299 11.2091C2.62129 11.2072 2.61982 11.2053 2.61859 11.2036C0.387514 8.8544 0.393342 5.05344 2.63896 2.71347L2.63897 2.71346C3.73065 1.57673 5.18288 0.95 6.72809 0.95C8.27283 0.95 9.72552 1.57673 10.8172 2.71346C10.8189 2.71519 10.8203 2.71693 10.8216 2.71858C10.8232 2.71993 10.825 2.7215 10.8267 2.72328L10.8279 2.72451L10.8279 2.72453L12 4.01887L13.1734 2.72451L13.1746 2.72326L13.1746 2.72328C13.1763 2.72153 13.178 2.71998 13.1797 2.71864L2.62299 11.2091ZM2.62299 11.2091L10.6805 20.4256C10.6805 20.4256 10.6805 20.4256 10.6805 20.4256C11.0272 20.8267 11.4959 21.05 11.999 21.05H11.9991H11.9991H11.9991H11.9991H11.9991H11.9991H11.9992H11.9992H11.9992H11.9992H11.9992H11.9992H11.9992H11.9993H11.9993H11.9993H11.9993H11.9993H11.9993H11.9993H11.9994H11.9994H11.9994H11.9994H11.9994H11.9994H11.9994H11.9995H11.9995H11.9995H11.9995H11.9995H11.9995H11.9995H11.9996H11.9996H11.9996H11.9996H11.9996H11.9996H11.9996H11.9997H11.9997H11.9997H11.9997H11.9997H11.9997H11.9998H11.9998H11.9998H11.9998H11.9998H11.9998H11.9998H11.9999H11.9999H11.9999H11.9999H11.9999H11.9999H11.9999H12C12.5035 21.05 12.9722 20.8273 13.3184 20.4276C13.3185 20.4276 13.3185 20.4275 13.3185 20.4275L21.3792 11.2086C21.3811 11.2064 21.3827 11.2042 21.3839 11.2023C23.612 8.85357 23.6058 5.05306 21.3629 2.71349L21.3628 2.71345C20.2707 1.57673 18.8185 0.95 17.2732 0.95C15.7285 0.95 14.2759 1.5767 13.1842 2.71337L2.62299 11.2091ZM12.2209 5.19619L12.2461 5.2394C12.2512 5.2364 12.257 5.2332 12.2633 5.22975C12.2889 5.21569 12.3222 5.1974 12.3492 5.17097L12.3501 5.17006C12.3541 5.16594 12.3572 5.16166 12.3592 5.1586C12.3595 5.1584 12.3598 5.15819 12.3601 5.15798C12.3627 5.15613 12.3663 5.15339 12.37 5.14959L12.37 5.14961L12.3712 5.14835L13.913 3.44796C14.8125 2.51547 16.0052 2.00238 17.2732 2.00238C18.5452 2.00238 19.7414 2.51803 20.6408 3.4551C22.4988 5.39338 22.4988 8.54713 20.6408 10.4849L20.6769 10.5195L20.641 10.4847C20.6375 10.4884 20.6347 10.4922 20.6328 10.4952C20.6303 10.4972 20.6274 10.4999 20.6246 10.5032L12.5627 19.7233L12.5626 19.7235C12.4083 19.9018 12.2085 19.9971 12 19.9971H11.9995C11.7915 19.9971 11.5922 19.9019 11.4364 19.722L11.4363 19.7219L3.37736 10.5039C3.37417 10.5 3.37082 10.4969 3.36791 10.4945C3.36619 10.4918 3.36363 10.4882 3.36004 10.4844C1.50069 8.54712 1.50067 5.3934 3.36002 3.45512C4.26043 2.51803 5.45617 2.00238 6.72809 2.00238C7.99838 2.00238 9.19252 2.51688 10.0924 3.45174L11.6287 5.14832L11.6285 5.1485L11.6323 5.1519C11.6353 5.15455 11.6382 5.15674 11.6406 5.15837C11.6427 5.16161 11.6457 5.16588 11.6498 5.17006L11.6498 5.17008L11.651 5.17126C11.6786 5.19787 11.7116 5.21621 11.7375 5.23065C11.7434 5.2339 11.7489 5.23696 11.7539 5.23987L11.7539 5.23988L11.7547 5.24035C11.7588 5.24265 11.7625 5.24539 11.7692 5.25033C11.7705 5.25129 11.7718 5.25233 11.7734 5.25346C11.7813 5.2593 11.7933 5.26804 11.8082 5.27418C11.8691 5.29982 11.9339 5.31429 12 5.31429C12.0659 5.31429 12.1306 5.29986 12.1915 5.2743M12.2209 5.19619L12.2467 5.23905C12.2426 5.24151 12.239 5.24416 12.2335 5.24832C12.2316 5.24979 12.2294 5.25145 12.2268 5.25336C12.2185 5.25949 12.2064 5.26819 12.1915 5.2743M12.2209 5.19619C12.2144 5.20012 12.2082 5.20478 12.202 5.20943C12.1925 5.21661 12.183 5.22376 12.1724 5.2281M12.2209 5.19619C12.228 5.19206 12.2352 5.18809 12.2424 5.18412C12.2675 5.17025 12.2927 5.15634 12.3143 5.13524C12.3161 5.13333 12.3174 5.13119 12.3187 5.12905C12.3199 5.1269 12.3212 5.12476 12.3231 5.12286C12.3247 5.12119 12.3266 5.12 12.3286 5.11881C12.3306 5.11762 12.3325 5.11643 12.3341 5.11476L12.1724 5.2281M12.1915 5.2743C12.1916 5.27426 12.1917 5.27422 12.1918 5.27418L12.1724 5.2281M12.1915 5.2743C12.1914 5.27434 12.1913 5.27437 12.1912 5.27441L12.1724 5.2281M21.3788 11.2077L21.3792 11.2073L21.3788 11.2077ZM11.7595 5.1856C11.7338 5.17125 11.7081 5.15687 11.6857 5.13524L11.7996 5.21064C11.793 5.20569 11.7863 5.20071 11.779 5.19667C11.7726 5.1929 11.766 5.18925 11.7595 5.1856ZM21.3896 11.1899C21.3898 11.1895 21.3898 11.1895 21.3897 11.1896L21.3896 11.1899Z" fill="#515855" stroke="#515855" stroke-width="0.1"/>
  </symbol>

  <symbol id="logo" viewBox="0 0 129 17">
    <path d="M9.375 0.0999991C10.175 0.0999991 10.9833 0.174999 11.8 0.324999C12.6167 0.474999 13.2667 0.691666 13.75 0.975C13.9 1.04167 13.9917 1.11667 14.025 1.2C14.075 1.26667 14.1083 1.39167 14.125 1.575L14.4 4.375C14.4 4.425 14.3583 4.45833 14.275 4.475C14.1917 4.475 14.1417 4.45 14.125 4.4C13.7583 3.11667 13.075 2.175 12.075 1.575C11.0917 0.958333 9.86667 0.649999 8.4 0.649999C7.13333 0.649999 6.025 0.933333 5.075 1.5C4.125 2.05 3.39167 2.83333 2.875 3.85C2.35833 4.86667 2.1 6.04167 2.1 7.375C2.1 8.925 2.41667 10.3583 3.05 11.675C3.7 12.9917 4.56667 14.0333 5.65 14.8C6.75 15.5667 7.93333 15.95 9.2 15.95C10.4 15.95 11.4417 15.625 12.325 14.975C13.2083 14.3083 13.8833 13.2917 14.35 11.925C14.35 11.875 14.3833 11.85 14.45 11.85C14.5 11.85 14.5417 11.8583 14.575 11.875C14.625 11.8917 14.65 11.9167 14.65 11.95L14.3 14.775C14.2667 14.975 14.225 15.1083 14.175 15.175C14.1417 15.225 14.05 15.2833 13.9 15.35C12.4 15.9833 10.8167 16.3 9.15 16.3C7.15 16.3 5.475 15.9 4.125 15.1C2.79167 14.2833 1.80833 13.25 1.175 12C0.541667 10.75 0.225 9.43333 0.225 8.05C0.225 6.51667 0.65 5.14167 1.5 3.925C2.35 2.70833 3.475 1.76667 4.875 1.1C6.275 0.433333 7.775 0.0999991 9.375 0.0999991ZM24.8736 16.3C23.3236 16.3 21.9403 15.9417 20.7236 15.225C19.5236 14.4917 18.5903 13.5083 17.9236 12.275C17.2736 11.025 16.9486 9.66667 16.9486 8.2C16.9486 6.48333 17.382 5.01667 18.2486 3.8C19.1153 2.56667 20.2236 1.64167 21.5736 1.025C22.9403 0.408332 24.332 0.0999991 25.7486 0.0999991C27.332 0.0999991 28.7236 0.474999 29.9236 1.225C31.1236 1.95833 32.0403 2.93333 32.6736 4.15C33.3236 5.36667 33.6486 6.65833 33.6486 8.025C33.6486 9.54167 33.2486 10.9333 32.4486 12.2C31.6486 13.4667 30.5736 14.4667 29.2236 15.2C27.8903 15.9333 26.4403 16.3 24.8736 16.3ZM25.7486 15.775C26.882 15.775 27.8986 15.5 28.7986 14.95C29.7153 14.4 30.432 13.5917 30.9486 12.525C31.482 11.4583 31.7486 10.1917 31.7486 8.725C31.7486 7.15833 31.457 5.76667 30.8736 4.55C30.2903 3.33333 29.4653 2.38333 28.3986 1.7C27.3486 1.01667 26.1153 0.674999 24.6986 0.674999C22.8653 0.674999 21.432 1.26667 20.3986 2.45C19.3653 3.63333 18.8486 5.25833 18.8486 7.325C18.8486 8.89167 19.1403 10.325 19.7236 11.625C20.307 12.9083 21.1236 13.925 22.1736 14.675C23.2236 15.4083 24.4153 15.775 25.7486 15.775ZM38.4893 3.3C38.4893 3.95 38.6476 4.51667 38.9643 5C39.2809 5.48333 39.6643 5.89167 40.1143 6.225C40.5643 6.54167 41.1976 6.95 42.0143 7.45C42.8809 7.96667 43.5559 8.4 44.0393 8.75C44.5226 9.1 44.9309 9.55 45.2643 10.1C45.6143 10.6333 45.7893 11.275 45.7893 12.025C45.7893 12.825 45.5893 13.55 45.1893 14.2C44.7893 14.85 44.1976 15.3667 43.4143 15.75C42.6476 16.1167 41.7226 16.3 40.6393 16.3C39.3559 16.3 38.1809 16.0083 37.1143 15.425C37.0309 15.375 36.9726 15.3167 36.9393 15.25C36.9226 15.1833 36.9059 15.0833 36.8893 14.95L36.5643 11.55C36.5476 11.4833 36.5809 11.4417 36.6643 11.425C36.7643 11.4083 36.8226 11.4333 36.8393 11.5C37.1059 12.7 37.5976 13.7333 38.3143 14.6C39.0476 15.4667 40.0143 15.9 41.2143 15.9C42.0476 15.9 42.7476 15.675 43.3143 15.225C43.8976 14.7583 44.1893 14.025 44.1893 13.025C44.1893 12.275 44.0226 11.625 43.6893 11.075C43.3559 10.525 42.9476 10.075 42.4643 9.725C41.9976 9.35833 41.3559 8.93333 40.5393 8.45C39.7393 7.96667 39.1059 7.55 38.6393 7.2C38.1893 6.85 37.8059 6.40833 37.4893 5.875C37.1726 5.34167 37.0143 4.71667 37.0143 4C37.0143 3.16667 37.2309 2.45833 37.6643 1.875C38.1143 1.275 38.6893 0.833333 39.3893 0.549999C40.1059 0.249999 40.8643 0.0999991 41.6643 0.0999991C42.6476 0.0999991 43.6226 0.299999 44.5893 0.699999C44.8393 0.783332 44.9643 0.924999 44.9643 1.125L45.1393 4C45.1393 4.06667 45.0976 4.1 45.0143 4.1C44.9309 4.1 44.8809 4.06667 44.8643 4C44.7309 3.13333 44.3726 2.33333 43.7893 1.6C43.2059 0.849999 42.3643 0.474999 41.2643 0.474999C40.3309 0.474999 39.6309 0.749999 39.1643 1.3C38.7143 1.83333 38.4893 2.5 38.4893 3.3ZM51.9445 13.875C51.9445 14.4083 52.0112 14.8 52.1445 15.05C52.2945 15.2833 52.5695 15.45 52.9695 15.55C53.3862 15.65 54.0362 15.7 54.9195 15.7C54.9695 15.7 54.9945 15.75 54.9945 15.85C54.9945 15.95 54.9695 16 54.9195 16C54.2362 16 53.7029 15.9917 53.3195 15.975L51.1445 15.95L49.4695 15.975C49.1529 15.9917 48.7279 16 48.1945 16C48.1612 16 48.1445 15.95 48.1445 15.85C48.1445 15.75 48.1612 15.7 48.1945 15.7C48.8279 15.7 49.2862 15.6583 49.5695 15.575C49.8695 15.4917 50.0695 15.3333 50.1695 15.1C50.2695 14.85 50.3195 14.475 50.3195 13.975V2.4C50.3195 1.9 50.2695 1.53333 50.1695 1.3C50.0695 1.06667 49.8695 0.908332 49.5695 0.824999C49.2862 0.724999 48.8279 0.674999 48.1945 0.674999C48.1612 0.674999 48.1445 0.624999 48.1445 0.525C48.1445 0.425 48.1612 0.375 48.1945 0.375L49.4445 0.4C50.1445 0.433333 50.7029 0.449999 51.1195 0.449999C51.5362 0.449999 52.0029 0.424999 52.5195 0.375C52.7195 0.375 53.0362 0.366666 53.4695 0.349999C53.9029 0.316666 54.2779 0.299999 54.5945 0.299999C56.1279 0.299999 57.3529 0.641666 58.2695 1.325C59.2029 2.00833 59.6695 3.05 59.6695 4.45C59.6695 5.55 59.3945 6.475 58.8445 7.225C58.3112 7.975 57.6195 8.53333 56.7695 8.9C55.9195 9.26667 55.0445 9.45 54.1445 9.45C53.6612 9.45 53.2612 9.40833 52.9445 9.325C52.8945 9.325 52.8695 9.28333 52.8695 9.2C52.8695 9.15 52.8779 9.1 52.8945 9.05C52.9279 9 52.9612 8.98333 52.9945 9C53.2612 9.06667 53.5612 9.1 53.8945 9.1C54.9945 9.1 55.9195 8.74167 56.6695 8.025C57.4362 7.30833 57.8195 6.275 57.8195 4.925C57.8195 3.60833 57.4612 2.575 56.7445 1.825C56.0279 1.05833 55.1112 0.674999 53.9945 0.674999C53.3945 0.674999 52.9612 0.708333 52.6945 0.774999C52.4279 0.841666 52.2362 0.999999 52.1195 1.25C52.0029 1.48333 51.9445 1.88333 51.9445 2.45V13.875ZM77.7938 15.7C77.8271 15.7 77.8438 15.75 77.8438 15.85C77.8438 15.95 77.8271 16 77.7938 16H74.5688C74.1521 16 73.3688 15.2917 72.2188 13.875C71.0854 12.4417 69.7021 10.45 68.0687 7.9C67.6688 8.01667 67.2188 8.075 66.7188 8.075C66.4021 8.075 66.0271 8.05833 65.5938 8.025V13.975C65.5938 14.4917 65.6438 14.8667 65.7438 15.1C65.8438 15.3333 66.0354 15.4917 66.3188 15.575C66.6188 15.6583 67.0854 15.7 67.7188 15.7C67.7688 15.7 67.7938 15.75 67.7938 15.85C67.7938 15.95 67.7688 16 67.7188 16C67.2021 16 66.7938 15.9917 66.4938 15.975L64.7688 15.95L63.0688 15.975C62.7688 15.9917 62.3438 16 61.7938 16C61.7604 16 61.7438 15.95 61.7438 15.85C61.7438 15.75 61.7604 15.7 61.7938 15.7C62.4271 15.7 62.8938 15.6583 63.1938 15.575C63.4938 15.475 63.7021 15.3083 63.8188 15.075C63.9354 14.8417 63.9938 14.475 63.9938 13.975V2.4C63.9938 1.9 63.9354 1.53333 63.8188 1.3C63.7188 1.06667 63.5188 0.908332 63.2188 0.824999C62.9354 0.724999 62.4771 0.674999 61.8438 0.674999C61.7938 0.674999 61.7688 0.624999 61.7688 0.525C61.7688 0.425 61.7938 0.375 61.8438 0.375L63.0688 0.4C63.7688 0.433333 64.3354 0.449999 64.7688 0.449999C65.0688 0.449999 65.3521 0.441666 65.6188 0.424999C65.8854 0.408333 66.1188 0.391666 66.3188 0.375C66.8521 0.325 67.3354 0.299999 67.7688 0.299999C69.1188 0.299999 70.1604 0.574999 70.8938 1.125C71.6271 1.675 71.9938 2.44167 71.9938 3.425C71.9938 4.225 71.7604 4.98333 71.2938 5.7C70.8271 6.4 70.2104 6.95833 69.4438 7.375C70.8604 9.49167 72.0521 11.15 73.0188 12.35C73.9854 13.5333 74.8438 14.3917 75.5938 14.925C76.3438 15.4417 77.0771 15.7 77.7938 15.7ZM65.5938 7.4C66.0104 7.46667 66.5021 7.5 67.0688 7.5C68.2188 7.5 69.0438 7.25833 69.5438 6.775C70.0438 6.275 70.2938 5.45 70.2938 4.3C70.2938 1.88333 69.2771 0.674999 67.2438 0.674999C66.7938 0.674999 66.4521 0.716666 66.2188 0.799999C66.0021 0.866666 65.8438 1.025 65.7438 1.275C65.6438 1.50833 65.5938 1.9 65.5938 2.45V7.4ZM85.5182 16.3C83.9682 16.3 82.5848 15.9417 81.3682 15.225C80.1682 14.4917 79.2348 13.5083 78.5682 12.275C77.9182 11.025 77.5932 9.66667 77.5932 8.2C77.5932 6.48333 78.0265 5.01667 78.8932 3.8C79.7598 2.56667 80.8682 1.64167 82.2182 1.025C83.5848 0.408332 84.9765 0.0999991 86.3932 0.0999991C87.9765 0.0999991 89.3682 0.474999 90.5682 1.225C91.7682 1.95833 92.6848 2.93333 93.3182 4.15C93.9682 5.36667 94.2932 6.65833 94.2932 8.025C94.2932 9.54167 93.8932 10.9333 93.0932 12.2C92.2932 13.4667 91.2182 14.4667 89.8682 15.2C88.5348 15.9333 87.0848 16.3 85.5182 16.3ZM86.3932 15.775C87.5265 15.775 88.5432 15.5 89.4432 14.95C90.3598 14.4 91.0765 13.5917 91.5932 12.525C92.1265 11.4583 92.3932 10.1917 92.3932 8.725C92.3932 7.15833 92.1015 5.76667 91.5182 4.55C90.9348 3.33333 90.1098 2.38333 89.0432 1.7C87.9932 1.01667 86.7598 0.674999 85.3432 0.674999C83.5098 0.674999 82.0765 1.26667 81.0432 2.45C80.0098 3.63333 79.4932 5.25833 79.4932 7.325C79.4932 8.89167 79.7848 10.325 80.3682 11.625C80.9515 12.9083 81.7682 13.925 82.8182 14.675C83.8682 15.4083 85.0598 15.775 86.3932 15.775ZM97.1049 16.275C96.7715 16.275 96.5049 16.175 96.3049 15.975C96.1049 15.775 96.0049 15.5167 96.0049 15.2C96.0049 14.8833 96.1049 14.6333 96.3049 14.45C96.5049 14.25 96.7715 14.15 97.1049 14.15C97.4549 14.15 97.7215 14.2417 97.9049 14.425C98.1049 14.6083 98.2049 14.8667 98.2049 15.2C98.2049 15.5333 98.1049 15.8 97.9049 16C97.7215 16.1833 97.4549 16.275 97.1049 16.275ZM107.862 7.2C109.178 7.3 110.237 7.74167 111.037 8.525C111.853 9.29167 112.262 10.25 112.262 11.4C112.262 12.2833 112.045 13.0833 111.612 13.8C111.178 14.5167 110.578 15.0833 109.812 15.5C109.062 15.9 108.22 16.1 107.287 16.1C106.737 16.1 106.137 16.075 105.487 16.025C105.253 16.0083 104.978 15.9917 104.662 15.975C104.345 15.9583 103.995 15.95 103.612 15.95L101.912 15.975C101.612 15.9917 101.187 16 100.637 16C100.603 16 100.587 15.95 100.587 15.85C100.587 15.75 100.603 15.7 100.637 15.7C101.27 15.7 101.737 15.6583 102.037 15.575C102.337 15.475 102.545 15.3083 102.662 15.075C102.778 14.8417 102.837 14.475 102.837 13.975V2.4C102.837 1.9 102.778 1.53333 102.662 1.3C102.562 1.06667 102.362 0.908332 102.062 0.824999C101.762 0.724999 101.303 0.674999 100.687 0.674999C100.637 0.674999 100.612 0.624999 100.612 0.525C100.612 0.425 100.637 0.375 100.687 0.375L101.912 0.4C102.612 0.433333 103.178 0.449999 103.612 0.449999C103.912 0.449999 104.187 0.441666 104.437 0.424999C104.703 0.408333 104.928 0.391666 105.112 0.375C105.628 0.325 106.112 0.299999 106.562 0.299999C107.962 0.299999 109.012 0.608333 109.712 1.225C110.412 1.825 110.762 2.61667 110.762 3.6C110.762 4.4 110.503 5.11667 109.987 5.75C109.47 6.36667 108.762 6.85 107.862 7.2ZM106.012 0.674999C105.578 0.674999 105.253 0.708333 105.037 0.774999C104.837 0.841666 104.687 0.999999 104.587 1.25C104.487 1.5 104.437 1.9 104.437 2.45V7.2L105.562 7.225C106.778 7.225 107.678 6.91667 108.262 6.3C108.845 5.66667 109.137 4.83333 109.137 3.8C109.137 2.86667 108.878 2.11667 108.362 1.55C107.862 0.966666 107.078 0.674999 106.012 0.674999ZM106.912 15.65C108.128 15.65 109.028 15.3417 109.612 14.725C110.212 14.0917 110.512 13.1917 110.512 12.025C110.512 10.7583 110.137 9.73333 109.387 8.95C108.653 8.16667 107.637 7.76667 106.337 7.75C105.803 7.73333 105.17 7.75 104.437 7.8V13.975C104.437 14.4083 104.495 14.7417 104.612 14.975C104.745 15.2083 104.987 15.3833 105.337 15.5C105.703 15.6 106.228 15.65 106.912 15.65ZM128.852 0.375C128.885 0.375 128.902 0.425 128.902 0.525C128.902 0.624999 128.885 0.674999 128.852 0.674999C128.252 0.674999 127.644 0.899999 127.027 1.35C126.41 1.78333 125.86 2.38333 125.377 3.15L122.027 8.3V13.975C122.027 14.4917 122.077 14.8667 122.177 15.1C122.277 15.3333 122.469 15.4917 122.752 15.575C123.052 15.6583 123.519 15.7 124.152 15.7C124.202 15.7 124.227 15.75 124.227 15.85C124.227 15.95 124.202 16 124.152 16C123.635 16 123.235 15.9917 122.952 15.975L121.202 15.95L119.477 15.975C119.177 15.9917 118.769 16 118.252 16C118.202 16 118.177 15.95 118.177 15.85C118.177 15.75 118.202 15.7 118.252 15.7C118.885 15.7 119.344 15.6583 119.627 15.575C119.927 15.4917 120.127 15.3333 120.227 15.1C120.344 14.85 120.402 14.475 120.402 13.975V8.7L116.252 2.625C115.785 1.89167 115.344 1.38333 114.927 1.1C114.51 0.816666 114.027 0.674999 113.477 0.674999C113.427 0.674999 113.402 0.624999 113.402 0.525C113.402 0.425 113.427 0.375 113.477 0.375C113.677 0.375 113.977 0.391666 114.377 0.424999L115.252 0.449999C115.819 0.449999 116.535 0.433333 117.402 0.4L118.752 0.375C118.785 0.375 118.802 0.425 118.802 0.525C118.802 0.624999 118.785 0.674999 118.752 0.674999C117.885 0.674999 117.452 0.849999 117.452 1.2C117.452 1.38333 117.535 1.59167 117.702 1.825L121.727 7.725L124.777 3.05C125.144 2.46667 125.327 1.975 125.327 1.575C125.327 0.974999 124.877 0.674999 123.977 0.674999C123.944 0.674999 123.927 0.624999 123.927 0.525C123.927 0.425 123.944 0.375 123.977 0.375L125.152 0.4C125.785 0.433333 126.369 0.449999 126.902 0.449999C127.185 0.449999 127.527 0.433333 127.927 0.4L128.852 0.375Z" fill="#515855"/>
  </symbol>

  <symbol id="arrow" viewBox="0 0 5 8">
    <path d="M4.85355 4.35355C5.04882 4.15829 5.04882 3.84171 4.85355 3.64645L1.67157 0.464466C1.47631 0.269204 1.15973 0.269204 0.964466 0.464466C0.769204 0.659728 0.769204 0.976311 0.964466 1.17157L3.79289 4L0.964466 6.82843C0.769204 7.02369 0.769204 7.34027 0.964466 7.53553C1.15973 7.7308 1.47631 7.7308 1.67157 7.53553L4.85355 4.35355ZM4 4.5H4.5V3.5H4V4.5Z" fill="#777777"/>
  </symbol>

  <symbol id="phone"  viewBox="0 0 15 15">
    <path d="M14.4805 1.43359L11.6367 0.777344C11.3359 0.695312 11.0078 0.859375 10.8711 1.16016L9.55859 4.22266C9.44922 4.49609 9.53125 4.79688 9.75 4.98828L11.418 6.35547C10.4336 8.43359 8.71094 10.1836 6.57812 11.1953L5.21094 9.52734C5.01953 9.30859 4.71875 9.22656 4.44531 9.33594L1.38281 10.6484C1.08203 10.7852 0.945312 11.1133 1 11.4141L1.65625 14.2578C1.73828 14.5586 1.98438 14.75 2.3125 14.75C9.3125 14.75 15 9.08984 15 2.0625C15 1.76172 14.7812 1.51562 14.4805 1.43359Z" fill="#515855" />
  </symbol>

  <symbol id="footer-message" viewBox="0 0 14 11">
    <path d="M13.7266 3.97266C13.0977 4.46484 12.3047 5.06641 9.51562 7.08984C8.96875 7.5 7.95703 8.40234 7 8.40234C6.01562 8.40234 5.03125 7.5 4.45703 7.08984C1.66797 5.06641 0.875 4.46484 0.246094 3.97266C0.136719 3.89062 0 3.97266 0 4.10938V9.6875C0 10.4258 0.574219 11 1.3125 11H12.6875C13.3984 11 14 10.4258 14 9.6875V4.10938C14 3.97266 13.8359 3.89062 13.7266 3.97266ZM7 7.5C7.62891 7.52734 8.53125 6.70703 8.99609 6.37891C12.6328 3.75391 12.9062 3.50781 13.7266 2.85156C13.8906 2.74219 14 2.55078 14 2.33203V1.8125C14 1.10156 13.3984 0.5 12.6875 0.5H1.3125C0.574219 0.5 0 1.10156 0 1.8125V2.33203C0 2.55078 0.0820312 2.74219 0.246094 2.85156C1.06641 3.50781 1.33984 3.75391 4.97656 6.37891C5.44141 6.70703 6.34375 7.52734 7 7.5Z" fill="#515855" />
  </symbol>

  <symbol id="insta" viewBox="0 0 14 14" fill="none">
    <path d="M10.3478 0H3.65217C1.63513 0 0 1.61899 0 3.61613V10.2457C0 12.2428 1.63513 13.8618 3.65217 13.8618H10.3478C12.3649 13.8618 14 12.2428 14 10.2457V3.61613C14 1.61899 12.3649 0 10.3478 0Z" fill="#515855" />
    <path d="M7 9.90137C8.65685 9.90137 10 8.57145 10 6.93091C10 5.29037 8.65685 3.96045 7 3.96045C5.34315 3.96045 4 5.29037 4 6.93091C4 8.57145 5.34315 9.90137 7 9.90137Z" stroke="white" />
    <path d="M10.6514 4.21973C11.1557 4.21973 11.5645 3.81475 11.5645 3.31519C11.5645 2.81562 11.1557 2.41064 10.6514 2.41064C10.1471 2.41064 9.73828 2.81562 9.73828 3.31519C9.73828 3.81475 10.1471 4.21973 10.6514 4.21973Z" fill="white" />
  </symbol>

</svg>